<?xml version="1.0" encoding="UTF-8"?>
<!DOCTYPE svg PUBLIC "-//W3C//DTD SVG 1.1//EN" "http://www.w3.org/Graphics/SVG/1.1/DTD/svg11.dtd">
<!-- Creator: CorelDRAW X6 -->
<svg xmlns="http://www.w3.org/2000/svg" xml:space="preserve" width="29px" height="29px" version="1.1" style="shape-rendering:geometricPrecision; text-rendering:geometricPrecision; image-rendering:optimizeQuality; fill-rule:evenodd; clip-rule:evenodd"
viewBox="0 0 404975 404975"
 xmlns:xlink="http://www.w3.org/1999/xlink">
 <defs>
  <style type="text/css">
   <![CDATA[
    .fil2 {fill:#4D4D4D}
    .fil3 {fill:#666666}
    .fil4 {fill:gray}
    .fil0 {fill:white}
    .fil1 {fill:#666666;fill-rule:nonzero}
   ]]>
  </style>
 </defs>
 <g id="Capa_x0020_1">
  <metadata id="CorelCorpID_0Corel-Layer"/>
  <g id="_812475264">
   <circle class="fil0" cx="202489" cy="202485" r="171339"/>
   <path class="fil0" d="M202485 21118c100171,0 181371,81200 181371,181371 0,100167 -81200,181367 -181371,181367 -100167,0 -181367,-81200 -181367,-181367 0,-100171 81200,-181371 181367,-181371z"/>
   <path class="fil1" d="M202485 0c55912,0 106532,22666 143178,59312 36645,36645 59312,87266 59312,143178 0,55912 -22666,106536 -59312,143174 -36645,36645 -87266,59312 -143178,59312 -55912,0 -106536,-22666 -143174,-59312 -36645,-36637 -59312,-87262 -59312,-143174 0,-55912 22666,-106532 59312,-143178 36637,-36645 87262,-59312 143174,-59312zm113320 89169c-28995,-28995 -69065,-46933 -113320,-46933 -44255,0 -84325,17942 -113316,46933 -28995,28995 -46933,69065 -46933,113320 0,44255 17942,84325 46933,113316 28991,28991 69061,46933 113316,46933 44255,0 84325,-17938 113320,-46933 28991,-28991 46933,-69061 46933,-113316 0,-44255 -17938,-84325 -46933,-113320z"/>
   <path class="fil2" d="M323423 195095l-104744 -119913c-4430,-4813 -8596,-9617 -16190,-9617 -7598,0 -11764,4809 -16194,9617l-48577 55617 0 -32854c0,-8935 -7255,-16190 -16190,-16190 -8939,0 -16190,7255 -16190,16190l0 69927 -23780 27224c-5315,5942 -8604,9617 -8604,16194 0,8225 6453,16194 16194,16194l16190 -4 0 80957c0,8907 7283,16194 16190,16194l161917 0c8903,0 16194,-7287 16194,-16194l0 -80957 16190 0c9741,0 16194,-7969 16194,-16194 -4,-6572 -3288,-10248 -8600,-16190zm-56167 0l0 97150 -32387 0 0 -64767 -64763 0 0 64767 -32387 0 0 -97150 -13169 0 77940 -89225 77936 89225 -13169 0z"/>
   <path class="fil3" d="M204592 108280l75833 86819 -13169 0 0 97146 -32387 0 0 -64767 -30328 0 -40 97150 78945 0c8903,0 16190,-7287 16190,-16194l0 -80957 16194 0c9741,0 16194,-7965 16194,-16194 -4,-6572 -3288,-10248 -8600,-16186l-104744 -119920c-4003,-4342 -7786,-8679 -14071,-9482l-16 42583z"/>
   <path class="fil4" d="M202485 42236c44255,0 84325,17938 113320,46933 28995,28995 46933,69065 46933,113320 0,44255 -17942,84325 -46933,113316 -28995,28995 -69065,46933 -113320,46933l0 21118 0 21118c55912,0 106532,-22666 143178,-59312 36645,-36637 59312,-87262 59312,-143174 0,-55912 -22666,-106532 -59312,-143178 -36645,-36645 -87266,-59312 -143178,-59312l0 21118 0 21118z"/>
  </g>
 </g>
</svg>
