<?xml version="1.0" encoding="UTF-8"?>
<!DOCTYPE svg PUBLIC "-//W3C//DTD SVG 1.1//EN" "http://www.w3.org/Graphics/SVG/1.1/DTD/svg11.dtd">
<!-- Creator: CorelDRAW X6 -->
<svg xmlns="http://www.w3.org/2000/svg" xml:space="preserve" width="58px" height="58px" version="1.1" style="shape-rendering:geometricPrecision; text-rendering:geometricPrecision; image-rendering:optimizeQuality; fill-rule:evenodd; clip-rule:evenodd"
viewBox="0 0 1238515 1238515"
 xmlns:xlink="http://www.w3.org/1999/xlink">
 <defs>
  <style type="text/css">
   <![CDATA[
    .fil8 {fill:#FFCC29}
    .fil9 {fill:#EB05EB}
    .fil6 {fill:#26A1DB}
    .fil11 {fill:#444E9E}
    .fil4 {fill:#FEFEFE;fill-opacity:0.129412}
    .fil5 {fill:#201E1E;fill-opacity:0.160784}
    .fil3 {fill:#FEFEFE;fill-opacity:0.160784}
    .fil0 {fill:#FEFEFE;fill-opacity:0.200000}
    .fil13 {fill:#FEFEFE;fill-opacity:0.270588}
    .fil7 {fill:#373435;fill-opacity:0.309804}
    .fil12 {fill:#F58634;fill-opacity:0.360784}
    .fil10 {fill:#F58634;fill-opacity:0.501961}
    .fil1 {fill:black;fill-opacity:0.501961}
    .fil2 {fill:url(#id0)}
   ]]>
  </style>
  <radialGradient id="id0" gradientUnits="objectBoundingBox" cx="51.0003%" cy="44.9996%" r="50%" fx="51.0003%" fy="44.9996%">
   <stop offset="0" style="stop-color:#961618"/>
   <stop offset="0.470588" style="stop-color:#941F21"/>
   <stop offset="1" style="stop-color:#FF0009"/>
  </radialGradient>
 </defs>
 <g id="Capa_x0020_1">
  <metadata id="CorelCorpID_0Corel-Layer"/>
  <path class="fil0" d="M619257 0c342002,0 619257,277255 619257,619257 0,342002 -277255,619257 -619257,619257 -342002,0 -619257,-277255 -619257,-619257 0,-342002 277255,-619257 619257,-619257z"/>
  <path class="fil1" d="M611068 44041c329541,0 596681,267140 596681,596681 0,329547 -267140,596687 -596681,596687 -329547,0 -596681,-267140 -596681,-596687 0,-329541 267134,-596681 596681,-596681z"/>
  <circle class="fil2" cx="619255" cy="622298" r="596682"/>
  <circle class="fil2" cx="619255" cy="622298" r="523619"/>
  <path class="fil3" d="M1122436 437715c-80768,-220152 -278628,-375709 -509917,-375709 -222977,0 -414902,144597 -500773,352251 158066,88520 337385,138485 527438,138485 172556,0 336267,-41192 483251,-115027z"/>
  <path class="fil4" d="M135721 811456l0 0zm0 0c-22880,-2175 133740,321558 473379,321558 213639,0 398765,-132750 489436,-326522 -502122,637703 -955421,5018 -962815,4964z"/>
  <path class="fil5" d="M274619 263051c-626,37589 6173,75986 21082,115301 2886,11865 11550,16373 21969,18634 5893,-14053 9763,-29381 -3050,-55135 -11385,-29138 -24970,-55020 -40001,-78799zm-42869 -81691c-89547,-20043 -107627,27729 -68222,130095 19423,37935 45214,72645 94006,95768 12370,13718 24746,27437 37115,41155 8998,56040 7716,110100 -7139,161517 -31787,111759 -63319,223572 -51314,345587 8967,91023 29156,172684 73817,233937 44606,53234 171299,-14180 113168,-111097 -85677,-212181 -74996,-221816 -75452,-450614 1531,-22103 3068,-44211 4593,-66314 43665,53707 87323,107421 130988,161134 28294,34807 47462,56709 63781,99310 31344,81825 16695,127877 51781,238536 35214,74595 167817,53799 137549,-55463 -26592,-122081 -74856,-208797 -136492,-273671 -71739,-75324 -143485,-150636 -215231,-225960 -25766,-15183 -36836,-33184 -36003,-53422 15462,-33367 30924,-66733 46386,-100100 24964,-37212 27030,-84601 -13208,-150757 -50603,-45864 -98453,-79656 -121710,-6106 -9472,-4514 -18943,-9022 -28415,-13536z"/>
  <path class="fil6" d="M284449 251313c-632,37583 6167,75986 21076,115295 2892,11872 11556,16380 21969,18634 5893,-14047 9763,-29381 -3044,-55129 -11392,-29138 -24976,-55026 -40001,-78799zm-42875 -81697c-89541,-20043 -107621,27729 -68222,130101 19429,37929 45214,72645 94012,95768 12370,13718 24739,27431 37109,41149 8998,56046 7722,110106 -7139,161517 -31787,111759 -63319,223578 -51314,345593 8974,91017 29156,172678 73817,233931 44606,53240 171305,-14180 113174,-111097 -85683,-212181 -74996,-221810 -75458,-450614 1531,-22097 3068,-44211 4599,-66314 43665,53707 87323,107421 130982,161134 28300,34807 47468,56709 63787,99310 31337,81825 16689,127877 51781,238542 35214,74595 167817,53799 137549,-55469 -26592,-122075 -74856,-208791 -136492,-273671 -71746,-75318 -143491,-150636 -215237,-225954 -25760,-15183 -36830,-33190 -35997,-53428 15456,-33367 30924,-66733 46380,-100100 24964,-37212 27030,-84601 -13202,-150751 -50609,-45870 -98460,-79662 -121710,-6112 -9478,-4508 -18949,-9022 -28421,-13536z"/>
  <path class="fil7" d="M296047 450905c-19849,12218 -21301,28427 -6325,50250 15578,22722 23968,10663 50269,1574 35894,2941 55269,-5760 79358,-11780 23749,-5869 11774,-37863 -9721,-50931 -11361,-6896 -15833,-5304 -27880,-3335 -29557,4800 -54679,9350 -85701,14223z"/>
  <path class="fil8" d="M293805 444824c-19849,12212 -21301,28421 -6331,50244 15584,22722 23974,10663 50275,1574 35894,2941 55269,-5760 79352,-11780 23755,-5869 11774,-37863 -9715,-50931 -11367,-6896 -15833,-5298 -27887,-3329 -29557,4800 -54673,9344 -85695,14223z"/>
  <path class="fil5" d="M798132 207023c5207,-22151 14296,-41891 37899,-52541 51314,-8998 35566,67803 1725,101643 -19101,43191 -12437,73501 -3961,102901 14964,51939 102986,115562 140921,221847 18482,106267 -31076,168893 -100780,127488 -31459,-36830 -37680,-101825 -45657,-164531 650,-44728 -6805,-78653 -18427,-107026 -13840,-33792 -17333,-71108 -17109,-109134 -6227,35451 -10341,67493 -30013,98642 -6337,10037 -12151,21137 -17898,32352 -3609,73738 -10134,145053 -28458,206531 -17704,36532 -61168,49248 -87779,26939 -67815,-56848 -46976,-147434 -10377,-207733 29861,-49205 51186,-55153 90324,-91363 41356,-38257 78872,-86904 40724,-136401 -23713,-30772 -31769,-15881 -27716,-65956 2527,-31192 14958,-43999 35214,-42273 27273,11185 32632,39418 37632,67930l972 48871c1203,-19745 2436,-39278 2764,-58185z"/>
  <path class="fil9" d="M806784 205947c5207,-22151 14296,-41891 37899,-52541 51314,-8998 35566,67803 1725,101643 -19101,43191 -12437,73501 -3961,102901 14964,51939 102986,115562 140921,221847 18482,106267 -31076,168893 -100780,127488 -31459,-36830 -37680,-101825 -45657,-164531 650,-44728 -6805,-78653 -18427,-107026 -13840,-33792 -17333,-71108 -17109,-109134 -6227,35451 -10341,67493 -30013,98642 -6337,10037 -12151,21137 -17898,32352 -3609,73738 -10134,145053 -28458,206531 -17704,36532 -61168,49248 -87779,26939 -67815,-56848 -46976,-147434 -10377,-207733 29861,-49205 51186,-55153 90324,-91363 41356,-38257 78872,-86904 40724,-136401 -23713,-30772 -31769,-15881 -27716,-65956 2527,-31192 14958,-43999 35214,-42273 27273,11185 32632,39418 37632,67930l972 48871c1203,-19745 2436,-39278 2764,-58185z"/>
  <path class="fil7" d="M848006 351036c19041,-7291 22911,-20985 13573,-42170 -9715,-22054 -18877,-13044 -42960,-9484 -30377,-8336 -48440,-3992 -70117,-2716 -21368,1203 -16246,30639 109,45354 8658,7764 12752,7114 23433,7376 26179,656 48513,808 75962,1640z"/>
  <path class="fil8" d="M847921 345198c19035,-7291 22911,-20991 13573,-42170 -9715,-22054 -18883,-13044 -42960,-9490 -30377,-8336 -48440,-3992 -70117,-2716 -21368,1203 -16252,30645 109,45354 8652,7771 12752,7120 23427,7376 26185,662 48513,814 75968,1646z"/>
  <path class="fil10" d="M588242 198189c32741,0 59279,26945 59279,60178 0,33233 -26538,60178 -59279,60178 -32735,0 -59279,-26945 -59279,-60178 0,-33233 26544,-60178 59279,-60178z"/>
  <ellipse class="fil11" cx="588243" cy="258366" rx="55498" ry="56340"/>
  <path class="fil10" d="M176469 619385c19490,8585 25371,38069 13135,65858 -12230,27789 -37954,43361 -57444,34782 -19490,-8579 -25371,-38063 -13135,-65858 12236,-27789 37954,-43361 57444,-34782z"/>
  <ellipse class="fil11" transform="matrix(0.252417 0.111132 -0.140177 0.318388 154317 669706)" rx="130897" ry="147969"/>
  <path class="fil10" d="M512815 915693c21295,0 38555,17528 38555,39144 0,21617 -17260,39144 -38555,39144 -21295,0 -38561,-17528 -38561,-39144 0,-21617 17267,-39144 38561,-39144z"/>
  <ellipse class="fil11" cx="512814" cy="954837" rx="36101" ry="36649"/>
  <path class="fil12" d="M904958 806170c15231,2892 24314,22449 20280,43689 -4034,21240 -19648,36113 -34886,33221 -15231,-2886 -24308,-22449 -20280,-43689 4034,-21240 19648,-36113 34886,-33221z"/>
  <ellipse class="fil11" transform="matrix(0.197281 0.0374514 -0.0461939 0.243334 897656 844626)" rx="130897" ry="147969"/>
  <path class="fil12" d="M541600 412454c15231,2205 24314,17103 20280,33282 -4034,16179 -19648,27510 -34879,25304 -15237,-2199 -24314,-17103 -20286,-33282 4034,-16179 19654,-27510 34886,-25304z"/>
  <ellipse class="fil11" transform="matrix(0.197281 0.0285275 -0.0461939 0.185352 534299 441747)" rx="130897" ry="147969"/>
  <path class="fil13" d="M712535 654963c-4909,18621 -21872,32346 -42036,32346 -19174,0 -35463,-12400 -41234,-29630 9569,9751 24120,15960 40402,15960 17759,0 33440,-7388 42869,-18676z"/>
  <path class="fil13" d="M970707 645941c1057,22455 -13026,43671 -35481,50736 -21349,6713 -43817,-1391 -56277,-18555 14059,7509 32443,9326 50572,3627 19770,-6221 34642,-19934 41186,-35809z"/>
  <path class="fil13" d="M430753 1133050c-7515,28512 -33488,49527 -64364,49527 -29357,0 -54291,-18986 -63131,-45360 14648,14921 36933,24436 61861,24436 27188,0 51204,-11313 65634,-28603z"/>
  <path class="fil13" d="M744103 1030058c-7515,28512 -33488,49527 -64364,49527 -29357,0 -54291,-18986 -63131,-45366 14642,14928 36927,24442 61861,24442 27188,0 51204,-11313 65634,-28603z"/>
  <path class="fil13" d="M179780 269224c-17977,-16058 -23640,-42778 -12175,-65269 10899,-21380 33980,-32492 56478,-29138 -16313,5128 -31514,17826 -40767,35985 -10097,19800 -10772,41490 -3536,58422z"/>
 </g>
</svg>
