<?xml version="1.0" encoding="UTF-8"?>
<!DOCTYPE svg PUBLIC "-//W3C//DTD SVG 1.1//EN" "http://www.w3.org/Graphics/SVG/1.1/DTD/svg11.dtd">
<!-- Creator: CorelDRAW X6 -->
<svg xmlns="http://www.w3.org/2000/svg" xml:space="preserve" width="29px" height="29px" version="1.1" style="shape-rendering:geometricPrecision; text-rendering:geometricPrecision; image-rendering:optimizeQuality; fill-rule:evenodd; clip-rule:evenodd"
viewBox="0 0 5606605 5606605"
 xmlns:xlink="http://www.w3.org/1999/xlink"
 enable-background="new 0 0 32 32"
 xmlns:cc="http://creativecommons.org/ns#"
 xmlns:dc="http://purl.org/dc/elements/1.1/"
 xmlns:inkscape="http://www.inkscape.org/namespaces/inkscape"
 xmlns:rdf="http://www.w3.org/1999/02/22-rdf-syntax-ns#"
 xmlns:sodipodi="http://sodipodi.sourceforge.net/DTD/sodipodi-0.dtd"
 xmlns:svg="http://www.w3.org/2000/svg">
 <defs>
  <style type="text/css">
   <![CDATA[
    .str0 {stroke:#666666;stroke-width:579967}
    .fil1 {fill:none}
    .fil2 {fill:#666666}
    .fil0 {fill:white}
   ]]>
  </style>
 </defs>
 <g id="Capa_x0020_1">
  <metadata id="CorelCorpID_0Corel-Layer"/>
  <circle class="fil0 str0" cx="2803302" cy="2803302" r="2513291"/>
  <g id="_235887856">
   <g id="background">
    <rect class="fil1" x="327156" y="590222" width="4426219" height="4426219"/>
   </g>
   <g id="user_full_information">
    <path class="fil2" d="M2540226 1420133c229181,0 415014,-185723 415014,-414959 0,-229236 -185778,-415014 -415014,-415014 -229236,0 -414959,185778 -414959,415014 0,229236 185778,414959 414959,414959zm968238 1106503c-46856,0 -92779,3069 -138320,8165 0,-288915 0,-561389 0,-561389 0,0 0,-276694 -276639,-276694 -79024,0 -1106557,0 -1106557,0 0,0 -276694,0 -276694,276694l0 1106557c0,316042 276694,276639 276694,276639l0 1659836 1106557 -55 0 -72338c129880,45924 269186,72338 414959,72338 687598,-274 1244603,-557279 1244877,-1244877 -274,-687817 -557279,-1244877 -1244877,-1244877zm0 2196948c-525768,-1260 -951085,-426577 -952345,-952016 1260,-525768 426577,-951139 952345,-952345 525494,1206 950811,426577 952071,952345 -1260,525439 -426632,950756 -952071,952016z"/>
    <path class="fil2" d="M3370144 4463111l276639 0 0 -829918 -276639 0 0 829918zm0 -1383142l0 276639 276639 -55 0 -276639 -276639 55z"/>
   </g>
  </g>
 </g>
</svg>
