<?xml version="1.0" encoding="UTF-8"?>
<!DOCTYPE svg PUBLIC "-//W3C//DTD SVG 1.1//EN" "http://www.w3.org/Graphics/SVG/1.1/DTD/svg11.dtd">
<!-- Creator: CorelDRAW X6 -->
<svg xmlns="http://www.w3.org/2000/svg" xml:space="preserve" width="29px" height="29px" version="1.1" style="shape-rendering:geometricPrecision; text-rendering:geometricPrecision; image-rendering:optimizeQuality; fill-rule:evenodd; clip-rule:evenodd"
viewBox="0 0 817130 817130"
 xmlns:xlink="http://www.w3.org/1999/xlink">
 <defs>
  <style type="text/css">
   <![CDATA[
    .str0 {stroke:#666666;stroke-width:84380}
    .fil1 {fill:#666666}
    .fil0 {fill:white}
   ]]>
  </style>
 </defs>
 <g id="Capa_x0020_1">
  <metadata id="CorelCorpID_0Corel-Layer"/>
  <circle class="fil0 str0" cx="408565" cy="408565" r="366371"/>
  <path id="mail" class="fil1" d="M589552 250198l-361982 0c-33320,0 -60325,27029 -60325,60333l0 196068c0,33320 27013,60333 60325,60333l361982 0c33320,0 60333,-27013 60333,-60333l0 -196068c0,-33304 -27013,-60333 -60333,-60333zm-392144 79182l105557 79189 -105557 79182 0 -158371zm422315 177220c0,16656 -13546,30170 -30170,30170l-361982 0c-16632,0 -30162,-13515 -30162,-30170l118122 -88606 65882 49426c8037,6004 17589,9050 27149,9050 9552,0 19096,-3030 27141,-9050l65898 -49426 118122 88606 0 0zm0 -18849l-105581 -79182 105581 -79189 0 158371zm-193078 -32403c-5262,3955 -11505,6036 -18083,6036 -6578,0 -12837,-2097 -18099,-6036l-62366 -46779 -12566 -9432 -118122 -88590 0 -16c0,-16640 13522,-30170 30162,-30170l361982 8c16624,0 30170,13522 30170,30162l-193078 144817z"/>
 </g>
</svg>
