<?xml version="1.0" encoding="UTF-8"?>
<!DOCTYPE svg PUBLIC "-//W3C//DTD SVG 1.1//EN" "http://www.w3.org/Graphics/SVG/1.1/DTD/svg11.dtd">
<!-- Creator: CorelDRAW X6 -->
<svg xmlns="http://www.w3.org/2000/svg" xml:space="preserve" width="29px" height="29px" version="1.1" style="shape-rendering:geometricPrecision; text-rendering:geometricPrecision; image-rendering:optimizeQuality; fill-rule:evenodd; clip-rule:evenodd"
viewBox="0 0 322681 322681"
 xmlns:xlink="http://www.w3.org/1999/xlink">
 <defs>
  <style type="text/css">
   <![CDATA[
    .str0 {stroke:#666666;stroke-width:33650.3}
    .fil1 {fill:#666666}
    .fil0 {fill:white}
   ]]>
  </style>
 </defs>
 <g id="Capa_x0020_1">
  <metadata id="CorelCorpID_0Corel-Layer"/>
  <g id="_235510464">
   <circle class="fil0 str0" cx="161341" cy="161341" r="144514"/>
   <g>
    <path class="fil1" d="M101755 84347c-118,6954 1141,14057 3898,21329 534,2194 2137,3027 4064,3444 1091,-2598 1806,-5434 -563,-10197 -2108,-5390 -4620,-10175 -7399,-14576zm-7930 -15110c-16563,-3707 -19908,5129 -12620,24064 3593,7018 8366,13437 17390,17714 2289,2537 4576,5075 6865,7612 1663,10366 1428,20366 -1320,29876 -5879,20671 -11714,41355 -9491,63921 1657,16836 5393,31940 13653,43272 8251,9844 31685,-2623 20932,-20550 -15847,-39247 -13870,-41027 -13956,-83348 283,-4089 566,-8178 849,-12267 8076,9936 16153,19870 24229,29806 5234,6439 8779,10490 11797,18369 5797,15135 3087,23653 9577,44121 6515,13797 31043,9952 25444,-10258 -4919,-22582 -13847,-38620 -25246,-50620 -13272,-13933 -26541,-27863 -39812,-41797 -4763,-2808 -6811,-6137 -6658,-9879 2859,-6172 5720,-12347 8579,-18518 4620,-6881 5002,-15647 -2442,-27882 -9361,-8483 -18210,-14735 -22512,-1129 -1752,-836 -3504,-1669 -5256,-2506z"/>
    <path class="fil1" d="M103485 120140c-3669,2261 -3940,5259 -1170,9294 2881,4204 4432,1971 9300,293 6639,544 10223,-1065 14677,-2181 4391,-1084 2178,-7002 -1797,-9418 -2105,-1275 -2932,-983 -5161,-617 -5466,887 -10111,1730 -15851,2630z"/>
   </g>
   <ellipse class="fil1" transform="matrix(0.165582 0.0729011 -0.0919543 0.208859 179161 109662)" rx="68506" ry="77441"/>
   <g>
    <path class="fil1" d="M228935 88366c-1727,3965 -2696,8347 -2849,13180 -216,1390 506,2251 1514,2951 1246,-1234 2334,-2690 2108,-5994 76,-3596 -226,-6948 -773,-10137zm-951 -10572c-8630,-6080 -12658,-1803 -12989,10814 391,4887 1599,9714 5762,14324 709,2003 1418,4006 2127,6010 -1517,6350 -4038,12038 -7886,16846 -8308,10474 -16595,20963 -20703,34455 -3062,10067 -4521,19634 -2480,28115 2391,7625 18827,6054 16928,-6811 258,-26324 1819,-26878 11866,-51208 1138,-2280 2277,-4563 3415,-6843 2270,7634 4537,15269 6808,22900 1469,4948 2541,8121 2394,13367 -280,10076 -3870,14324 -5024,27631 448,9479 15456,13122 17062,175 2563,-14143 1259,-25488 -2426,-35100 -4299,-11170 -8598,-22337 -12897,-33507 -2070,-2750 -2452,-5151 -1469,-7266 3116,-2862 6232,-5727 9345,-8588 4296,-2852 6607,-7797 5250,-16601 -3351,-7107 -6944,-12808 -12661,-6019 -808,-897 -1615,-1797 -2423,-2693z"/>
    <path class="fil1" d="M221390 109339c-2649,423 -3517,2083 -2890,5062 652,3100 2076,2191 5272,2385 3685,1895 6127,1825 8954,2251 2782,423 2919,-3504 1215,-5841 -903,-1234 -1450,-1262 -2817,-1587 -3351,-792 -6223,-1418 -9733,-2270z"/>
   </g>
   <ellipse class="fil1" transform="matrix(0.165582 0.0729011 -0.0919543 0.208859 215352 253475)" rx="68506" ry="77441"/>
  </g>
 </g>
</svg>
